<?xml version="1.0" encoding="UTF-8"?>
<svg id="b" data-name="Layer 1" xmlns="http://www.w3.org/2000/svg" viewBox="0 0 103 100">
  <path d="M16.83,82.3c1.46-1.42,2.92-2.85,4.35-4.3l-3.6-6.24c-1.43,1.44-2.87,2.86-4.33,4.28-.49.48-.99.95-1.49,1.43-1.11,1.07-2.23,2.14-3.36,3.2l3.6,6.24c.29-.27.57-.54.86-.81.85-.8,1.68-1.61,2.52-2.41.48-.46.97-.92,1.45-1.39Z" style="fill: #9ea4bd; stroke-width: 0px;"/>
  <path d="M8.4,80.66c-2.25-1.09-4.49-2.19-6.74-3.28l3.6,6.24c2.25,1.09,7.66,3.84,9.91,4.93l-6.76-7.9Z" style="fill: #9ea4bd; stroke-width: 0px;"/>
  <path d="M8.63,81.07l-.23-.41c-2.25-1.09-4.49-2.19-6.74-3.28l.24.41c2.25,1.09,4.49,2.19,6.74,3.28Z" style="fill: #fff; stroke-width: 0px;"/>
  <path d="M33.96,93.51l-.33-.57c-7.47-2.51-14.59-5.67-22.06-8.19l.31.54c7.44,2.59,14.6,5.69,22.07,8.21Z" style="fill: #fff; stroke-width: 0px;"/>
  <path d="M67.33,50.06c7.66-11.87,14.48-24.13,20.42-36.68l-.27-.46c-5.85,12.53-12.62,24.76-20.25,36.59-9.81,15.21-21.06,29.76-33.6,43.45l.33.57c12.4-13.74,23.57-28.28,33.37-43.46Z" style="fill: #fff; stroke-width: 0px;"/>
  <g>
    <path d="M77.66,6.51l-.22-.03c-1.52,1.89.22.03.22.03Z" style="fill: #f5e9e1; stroke-width: 0px;"/>
    <path d="M36.36,29.77l18.95,36.88c3.94-5.3,7.69-10.71,11.26-16.19L46.49,11.39c-3.16,6.22-6.54,12.34-10.13,18.38Z" style="fill: #f2f4f9; stroke-width: 0px;"/>
    <path d="M15.02,61.09l15.91,30.96c.88.32,1.76.62,2.65.92,3.47-3.78,6.83-7.64,10.09-11.55l-17.99-35c-3.4,4.97-6.96,9.86-10.67,14.67Z" style="fill: #e6eaf5; stroke-width: 0px;"/>
    <path d="M1.6,77.4c1.15.56,2.29,1.12,3.44,1.67l-1.82-3.55c-.54.62-1.07,1.25-1.62,1.87Z" style="fill: #e6eaf5; stroke-width: 0px;"/>
    <path d="M87.43,12.93c-3.3-2.19-6.6-4.37-9.91-6.55-.03.04-.05.07-.08.1l.22.03s-1.74,1.86-.22-.03l-5.09-.67c-3.45-.56-6.91-1.12-10.37-1.68l14.98,29.16c3.76-6.68,7.25-13.47,10.46-20.35Z" style="fill: #f2f4f9; stroke-width: 0px;"/>
    <path d="M76.96,33.28l-14.98-29.16c-3.69-.6-7.38-1.2-11.07-1.8-1.42,3.04-2.89,6.07-4.42,9.07l20.07,39.06c.2-.31.41-.62.61-.94,3.44-5.33,6.7-10.76,9.79-16.24Z" style="fill: #fff; stroke-width: 0px;"/>
    <path d="M30.53,39.17c-1.57,2.44-3.2,4.85-4.84,7.26l17.99,35c4.04-4.83,7.92-9.76,11.63-14.77l-18.95-36.88c-1.88,3.16-3.82,6.29-5.83,9.4Z" style="fill: #fff; stroke-width: 0px;"/>
    <path d="M8.11,81.02s0,0,.01-.01c0,0-.01.01-.01.01Z" style="fill: #fcf7f5; stroke-width: 0px;"/>
    <path d="M3.22,75.53l1.82,3.55c1.1.54,2.2,1.07,3.3,1.61,3.02-2.82,0,.12-.22.32.08-.06.63-.17,3.4,3.78,6.58,2.21,12.89,4.93,19.41,7.26l-15.91-30.96c-3.78,4.91-7.72,9.72-11.81,14.44Z" style="fill: #fff; stroke-width: 0px;"/>
  </g>
  <g>
    <path d="M24.14,89.76l3.11,6.05c3.39,1.32,6.78,2.62,10.25,3.79l-3.6-6.24c-3.3-1.11-6.53-2.35-9.76-3.6Z" style="fill: #9ea4bd; stroke-width: 0px;"/>
    <path d="M67.5,49.91c-4.43,6.87-9.16,13.61-14.17,20.19l3.37,6.55c5.09-6.68,9.9-13.52,14.4-20.5.38-.59.75-1.18,1.12-1.77l-3.38-6.58c-.45.7-.89,1.41-1.34,2.11Z" style="fill: #9ea4bd; stroke-width: 0px;"/>
    <path d="M33.9,93.36l3.6,6.24c2.54-2.77,5.01-5.57,7.44-8.41l-3.36-6.53c-2.51,2.93-5.07,5.83-7.69,8.69Z" style="fill: #9ea4bd; stroke-width: 0px;"/>
    <path d="M91.35,19.56l-3.6-6.24c-2.68,5.75-5.57,11.44-8.64,17.05l3.4,6.61c3.14-5.74,6.1-11.55,8.84-17.43Z" style="fill: #9ea4bd; stroke-width: 0px;"/>
    <path d="M79.11,30.38c-3.22,5.89-6.64,11.7-10.27,17.42l3.38,6.58c3.63-5.71,7.06-11.51,10.29-17.39l-3.4-6.61Z" style="fill: #e1e6f4; stroke-width: 0px;"/>
    <path d="M41.59,84.67l3.36,6.53c4.07-4.76,7.99-9.61,11.75-14.54l-3.37-6.55c-3.76,4.94-7.67,9.8-11.74,14.56Z" style="fill: #c7cfed; stroke-width: 0px;"/>
    <path d="M11.84,85.17l3.6,6.24c4,1.35,7.9,2.88,11.81,4.4l-3.11-6.05c-4.07-1.58-8.13-3.18-12.3-4.59Z" style="fill: #afb8d3; stroke-width: 0px;"/>
  </g>
  <g>
    <g>
      <path d="M84.35.4c5.67,10.27,9.83,26.48,9.75,38.22-5.69-10.26-9.81-26.48-9.75-38.22h0Z" style="fill: #ffe70f; stroke-width: 0px;"/>
      <path d="M74.94,18.09c7.14-4.23,18.16-7.1,26.46-6.85-7.13,4.24-18.16,7.08-26.46,6.85h0Z" style="fill: #ffe70f; stroke-width: 0px;"/>
    </g>
    <path d="M94.24,5.14c-1.7,3.58-3.89,7.05-6.07,10.35-2.25,3.31-4.59,6.56-7.29,9.54,1.74-3.63,3.85-7.02,6.07-10.35,2.24-3.27,4.61-6.61,7.29-9.54h0Z" style="fill: #ffe70f; stroke-width: 0px;"/>
  </g>
</svg>