<?xml version="1.0" encoding="utf-8"?>
<!-- Generator: Adobe Illustrator 26.0.1, SVG Export Plug-In . SVG Version: 6.00 Build 0)  -->
<svg version="1.1" id="Layer_1" xmlns="http://www.w3.org/2000/svg" xmlns:xlink="http://www.w3.org/1999/xlink" x="0px" y="0px"
	 viewBox="0 0 135.22 67.61" style="enable-background:new 0 0 135.22 67.61;" xml:space="preserve">
<style type="text/css">
	.st0{fill:url(#SVGID_1_);}
	.st1{fill:url(#SVGID_00000060708572216293840360000014040628324419262616_);}
	.st2{opacity:0.2;}
	.st3{fill:#FFFFFF;}
	.st4{opacity:0.4;}
	.st5{opacity:0.1;}
	.st6{fill:#DCE6ED;}
	.st7{fill:#C6D4DD;}
	.st8{fill:#6A42EA;}
	.st9{fill:#7E4CF5;}
	.st10{fill:#6B49D6;}
	.st11{opacity:0.3;fill:#070002;}
	.st12{opacity:0.29;fill:#C9BDF9;}
	.st13{opacity:0.3;fill:#C9BDF9;}
	.st14{fill:#BCC7CE;}
	.st15{fill:#8B979E;}
	.st16{fill:#DAE5EA;}
</style>
<g>
	<g>
		<path class="st8" d="M61.71,34.04c0,15.41-12.49,27.91-27.91,27.91c-15.41,0-27.91-12.5-27.91-27.91
			C5.9,18.63,18.39,6.14,33.8,6.14C49.22,6.14,61.71,18.63,61.71,34.04z"/>
		<path class="st9" d="M52.21,22.58c2.46,0,4.87,0.14,7.22,0.4C55.14,13.07,45.29,6.14,33.8,6.14C18.39,6.14,5.9,18.63,5.9,34.04
			c0,5.06,1.35,9.8,3.71,13.89C11.27,33.76,29.7,22.58,52.21,22.58z"/>
		<path class="st10" d="M52.64,33.8c0,10.81-8.41,19.57-18.79,19.57c-10.38,0-18.79-8.76-18.79-19.57
			c0-10.81,8.41-19.57,18.79-19.57C44.23,14.23,52.64,22.99,52.64,33.8z"/>
		<path class="st11" d="M52.64,33.73c0,10.28-8.41,18.61-18.79,18.61c-10.38,0-18.79-8.33-18.79-18.61s8.41-18.61,18.79-18.61
			C44.23,15.12,52.64,23.45,52.64,33.73z"/>
		<g>
			<path class="st12" d="M16.35,22.86c-0.88,1.32-2.38,0.67-1.78-0.75c0.1-0.24,2.53-5.93,8.56-8.41c1.94-0.82,2.46,0.97,0.74,1.79
				C18.59,17.66,16.37,22.81,16.35,22.86z"/>
			<path class="st13" d="M28.39,12.95c-0.02,0.47-0.41,0.83-0.88,0.81c-0.47-0.02-0.83-0.41-0.81-0.88
				c0.02-0.46,0.41-0.83,0.88-0.81C28.04,12.09,28.41,12.48,28.39,12.95z"/>
		</g>
		<g>
			<path class="st9" d="M51.37,43.06c0.77-1.38,2.32-0.84,1.83,0.61c-0.08,0.25-2.08,6.1-7.91,9.02c-1.88,0.97-2.52-0.79-0.87-1.73
				C49.52,48.41,51.35,43.12,51.37,43.06z"/>
			<path class="st9" d="M42.77,53.37c0,0.47-0.38,0.84-0.85,0.84c-0.47,0-0.84-0.38-0.84-0.84c0-0.47,0.38-0.85,0.84-0.85
				C42.39,52.53,42.77,52.91,42.77,53.37z"/>
			<path class="st9" d="M39.03,54.58c0,0.27-0.22,0.48-0.48,0.48c-0.27,0-0.48-0.22-0.48-0.48c0-0.27,0.22-0.48,0.48-0.48
				C38.81,54.1,39.03,54.31,39.03,54.58z"/>
			<path class="st9" d="M54.26,39.99c0,0.27-0.22,0.48-0.48,0.48c-0.27,0-0.48-0.22-0.48-0.48c0-0.27,0.22-0.48,0.48-0.48
				C54.05,39.51,54.26,39.73,54.26,39.99z"/>
		</g>
	</g>
	<g>
		<path class="st3" d="M33.65,33.09c-2.7,0-4.89-2.19-4.89-4.89c0-2.7,2.19-4.89,4.89-4.89c2.7,0,4.89,2.19,4.89,4.89
			C38.54,30.9,36.35,33.09,33.65,33.09z"/>
		<path class="st3" d="M41.25,44.29h-14.8c-0.48,0-0.87-0.39-0.87-0.87v-6.07c0-1.29,1.05-2.33,2.33-2.33h11.89
			c1.28,0,2.33,1.04,2.33,2.33v6.07C42.12,43.9,41.73,44.29,41.25,44.29z"/>
	</g>
</g>
<g>
	<g>
		<path class="st14" d="M129.25,34.2c0,15.38-12.46,27.84-27.84,27.84c-15.38,0-27.84-12.46-27.84-27.84
			c0-15.38,12.46-27.84,27.84-27.84C116.79,6.36,129.25,18.83,129.25,34.2z"/>
		<path class="st6" d="M119.77,22.77c2.46,0,4.86,0.14,7.2,0.4c-4.27-9.89-14.11-16.8-25.56-16.8c-15.38,0-27.84,12.46-27.84,27.84
			c0,5.05,1.35,9.78,3.7,13.86C78.93,33.92,97.32,22.77,119.77,22.77z"/>
		<path class="st15" d="M120.2,33.96c0,10.78-8.39,19.52-18.75,19.52c-10.35,0-18.75-8.74-18.75-19.52
			c0-10.78,8.39-19.52,18.75-19.52C111.81,14.44,120.2,23.18,120.2,33.96z"/>
		<path class="st11" d="M120.2,33.89c0,10.25-8.39,18.56-18.75,18.56c-10.35,0-18.75-8.31-18.75-18.56
			c0-10.25,8.39-18.56,18.75-18.56C111.81,15.33,120.2,23.64,120.2,33.89z"/>
		<g>
			<path class="st3" d="M84,23.04c-0.87,1.31-2.37,0.67-1.78-0.74c0.1-0.24,2.53-5.91,8.54-8.39c1.94-0.82,2.45,0.97,0.74,1.78
				C86.24,17.86,84.02,22.99,84,23.04z"/>
			<path class="st3" d="M96.01,13.16c-0.02,0.47-0.41,0.83-0.87,0.81c-0.47-0.02-0.83-0.41-0.81-0.88c0.02-0.46,0.41-0.83,0.87-0.81
				C95.67,12.3,96.03,12.69,96.01,13.16z"/>
		</g>
		<g>
			<path class="st16" d="M118.94,43.2c0.77-1.38,2.32-0.84,1.83,0.61c-0.08,0.25-2.08,6.08-7.89,9c-1.88,0.96-2.52-0.79-0.87-1.72
				C117.09,48.54,118.92,43.25,118.94,43.2z"/>
			<path class="st16" d="M110.36,53.48c0,0.47-0.38,0.84-0.84,0.84c-0.47,0-0.84-0.38-0.84-0.84c0-0.46,0.38-0.84,0.84-0.84
				C109.98,52.64,110.36,53.02,110.36,53.48z"/>
			<path class="st16" d="M106.62,54.69c0,0.27-0.22,0.48-0.48,0.48c-0.27,0-0.48-0.21-0.48-0.48c0-0.27,0.21-0.48,0.48-0.48
				C106.41,54.2,106.62,54.42,106.62,54.69z"/>
			<path class="st16" d="M121.82,40.14c0,0.27-0.22,0.48-0.48,0.48c-0.27,0-0.48-0.22-0.48-0.48c0-0.27,0.22-0.48,0.48-0.48
				C121.61,39.66,121.82,39.87,121.82,40.14z"/>
		</g>
	</g>
	<g>
		<path class="st3" d="M101.26,33.25c-2.69,0-4.88-2.19-4.88-4.88c0-2.69,2.19-4.88,4.88-4.88c2.69,0,4.88,2.19,4.88,4.88
			C106.14,31.06,103.95,33.25,101.26,33.25z"/>
		<path class="st3" d="M108.84,44.42H94.07c-0.48,0-0.87-0.39-0.87-0.87V37.5c0-1.28,1.04-2.32,2.32-2.32h11.86
			c1.28,0,2.32,1.04,2.32,2.32v6.05C109.71,44.03,109.32,44.42,108.84,44.42z"/>
	</g>
</g>
</svg>
