<?xml version="1.0" encoding="utf-8"?>
<!-- Generator: Adobe Illustrator 26.0.1, SVG Export Plug-In . SVG Version: 6.00 Build 0)  -->
<svg version="1.1" id="Layer_1" xmlns="http://www.w3.org/2000/svg" xmlns:xlink="http://www.w3.org/1999/xlink" x="0px" y="0px"
	 viewBox="0 0 135.22 67.61" style="enable-background:new 0 0 135.22 67.61;" xml:space="preserve">
<style type="text/css">
	.st0{fill:url(#SVGID_1_);}
	.st1{fill:url(#SVGID_00000110435918465639272530000016305027726108805257_);}
	.st2{opacity:0.2;}
	.st3{fill:#FFFFFF;}
	.st4{opacity:0.4;}
	.st5{opacity:0.1;}
	.st6{fill:#DCE6ED;}
	.st7{fill:#C6D4DD;}
	.st8{fill:#6A42EA;}
	.st9{fill:#7E4CF5;}
	.st10{fill:#6B49D6;}
	.st11{opacity:0.3;fill:#070002;}
	.st12{opacity:0.29;fill:#C9BDF9;}
	.st13{opacity:0.3;fill:#C9BDF9;}
	.st14{fill:#BCC7CE;}
	.st15{fill:#8B979E;}
	.st16{fill:#DAE5EA;}
</style>
<g id="icon_5_">
	
		<linearGradient id="SVGID_1_" gradientUnits="userSpaceOnUse" x1="1325.5477" y1="1746.1864" x2="1325.5477" y2="1697.3046" gradientTransform="matrix(1 0 0 1 -1291.7434 -1687.5933)">
		<stop  offset="0" style="stop-color:#F39C12"/>
		<stop  offset="0.0758" style="stop-color:#F3A012"/>
		<stop  offset="0.6555" style="stop-color:#F1BA10"/>
		<stop  offset="1" style="stop-color:#F1C40F"/>
	</linearGradient>
	<path class="st0" d="M37.65,12.1l4.55,9.23c0.62,1.26,1.83,2.14,3.23,2.34l10.18,1.48c3.51,0.51,4.92,4.83,2.37,7.31l-7.37,7.18
		c-1.01,0.98-1.47,2.4-1.23,3.79l1.74,10.14c0.6,3.5-3.07,6.17-6.22,4.52L35.8,53.3c-1.25-0.66-2.74-0.66-3.99,0l-9.11,4.79
		c-3.14,1.65-6.82-1.02-6.22-4.52l1.74-10.14c0.24-1.39-0.22-2.81-1.23-3.79l-7.37-7.18c-2.54-2.48-1.14-6.8,2.37-7.31l10.18-1.48
		c1.4-0.2,2.6-1.08,3.23-2.34l4.55-9.23C31.53,8.91,36.08,8.91,37.65,12.1z"/>
	
		<linearGradient id="SVGID_00000119104977955846601970000009686580655798431416_" gradientUnits="userSpaceOnUse" x1="33.8043" y1="61.3866" x2="33.8043" y2="6.9177">
		<stop  offset="0" style="stop-color:#AEB6D6"/>
		<stop  offset="1" style="stop-color:#CDD4EC"/>
	</linearGradient>
	<path style="fill:url(#SVGID_00000119104977955846601970000009686580655798431416_);" d="M33.8,9.71c1.53,0,3.06,0.8,3.84,2.39
		l4.55,9.23c0.62,1.26,1.83,2.14,3.23,2.34l10.18,1.48c3.51,0.51,4.92,4.83,2.37,7.31l-7.37,7.18c-1.01,0.98-1.47,2.4-1.23,3.79
		l1.74,10.14c0.48,2.77-1.73,5.02-4.22,5.02c-0.66,0-1.34-0.16-1.99-0.5L35.8,53.3c-0.62-0.33-1.31-0.49-1.99-0.49
		c-0.68,0-1.37,0.16-1.99,0.49l-9.11,4.79c-0.66,0.34-1.34,0.5-1.99,0.5c-2.5,0-4.7-2.25-4.22-5.02l1.74-10.14
		c0.24-1.39-0.22-2.81-1.23-3.79l-7.37-7.18c-2.54-2.48-1.14-6.8,2.37-7.31l10.18-1.48c1.4-0.2,2.6-1.08,3.23-2.34l4.55-9.23
		C30.75,10.51,32.28,9.71,33.8,9.71 M33.8,6.92c-2.71,0-5.15,1.51-6.35,3.95l-4.55,9.23c-0.22,0.44-0.64,0.75-1.12,0.82L11.6,22.39
		c-2.69,0.39-4.88,2.24-5.71,4.82c-0.84,2.58-0.15,5.36,1.79,7.26l7.37,7.18c0.35,0.34,0.51,0.84,0.43,1.32L13.73,53.1
		c-0.35,2.06,0.21,4.16,1.55,5.74c1.36,1.61,3.34,2.54,5.43,2.54c1.15,0,2.26-0.28,3.29-0.82l9.11-4.79
		c0.21-0.11,0.45-0.17,0.69-0.17s0.48,0.06,0.69,0.17l9.11,4.79c1.04,0.55,2.15,0.82,3.29,0.82c2.09,0,4.07-0.93,5.43-2.54
		c1.34-1.59,1.9-3.68,1.55-5.74l-1.74-10.14c-0.08-0.48,0.08-0.98,0.43-1.32l7.37-7.18c1.94-1.89,2.63-4.67,1.79-7.26
		c-0.84-2.58-3.03-4.43-5.71-4.82l-10.18-1.48c-0.49-0.07-0.91-0.38-1.12-0.82l-4.55-9.23C38.95,8.43,36.52,6.92,33.8,6.92
		L33.8,6.92z"/>
	<g class="st2">
		<path class="st3" d="M45.43,23.67c-1.4-0.2-2.6-1.08-3.23-2.34l-4.55-9.23c-1.57-3.18-6.11-3.18-7.69,0l-4.55,9.23
			c-0.62,1.26-1.83,2.14-3.23,2.34L12,25.15c-0.5,0.07-0.94,0.23-1.35,0.43c5.38,6.89,13.74,11.34,23.15,11.34
			c9.42,0,17.78-4.45,23.15-11.34c-0.41-0.21-0.85-0.36-1.35-0.43L45.43,23.67z"/>
	</g>
	<g class="st4">
		<circle class="st3" cx="33.8" cy="13.76" r="2.03"/>
	</g>
	<g class="st4">
		<circle class="st3" cx="37.16" cy="18.63" r="1.33"/>
	</g>
	<g class="st4">
		<circle class="st3" cx="49.24" cy="26.59" r="1.33"/>
	</g>
	<path class="st5" d="M49.38,43.43c-0.22-1.27,0.17-2.55,1.01-3.52c-4.8,3.05-10.49,4.82-16.59,4.82c-6.11,0-11.79-1.77-16.59-4.82
		c0.84,0.97,1.23,2.25,1.01,3.52l-1.74,10.14c-0.6,3.5,3.07,6.17,6.22,4.52l9.11-4.79c1.25-0.66,2.74-0.66,3.99,0l9.11,4.79
		c3.14,1.65,6.82-1.02,6.22-4.52L49.38,43.43z"/>
</g>
<g>
	<path class="st6" d="M127.64,26.75c4.08,14.48-4.34,29.54-18.83,33.63c-14.48,4.09-29.54-4.34-33.63-18.83
		C71.1,27.07,79.53,12.01,94.01,7.92C108.5,3.83,123.55,12.27,127.64,26.75z"/>
	<path class="st7" d="M120.39,14.59c1.01,1.82,1.83,3.78,2.42,5.87c4.09,14.48-4.34,29.54-18.83,33.63
		c-9.69,2.73-19.62-0.14-26.37-6.67c6,10.78,18.81,16.46,31.21,12.96c14.49-4.09,22.92-19.15,18.83-33.63
		C126.29,21.95,123.72,17.82,120.39,14.59z"/>
	<path class="st3" d="M82.92,36.26c3.65,1.89,8.86-0.92,11.64-6.29c2.77-5.36,2.07-11.26-1.58-13.14
		c-3.65-1.89-8.86,0.93-11.64,6.29C78.56,28.49,79.26,34.38,82.92,36.26z"/>
</g>
</svg>
