<svg id="Layer_1" data-name="Layer 1" xmlns="http://www.w3.org/2000/svg" xmlns:xlink="http://www.w3.org/1999/xlink" viewBox="0 0 1118.88 1334.61"><defs><style>.cls-1{fill:#1f2941;}.cls-2{fill:#070002;opacity:0.3;}.cls-3{fill:#fff;}.cls-4{opacity:0.35;}.cls-5,.cls-6,.cls-7,.cls-8{stroke-miterlimit:10;}.cls-5{fill:url(#linear-gradient);stroke:url(#linear-gradient-2);}.cls-6{fill:url(#linear-gradient-3);stroke:url(#linear-gradient-4);}.cls-7{fill:url(#linear-gradient-5);stroke:url(#linear-gradient-6);}.cls-8{fill:none;stroke:#e6e6e6;}</style><linearGradient id="linear-gradient" x1="26.48" y1="636.46" x2="1112.51" y2="636.46" gradientUnits="userSpaceOnUse"><stop offset="0" stop-color="#fff"/><stop offset="0.99" stop-color="#abbec6"/></linearGradient><linearGradient id="linear-gradient-2" x1="125.61" y1="636.46" x2="998.88" y2="636.46" gradientUnits="userSpaceOnUse"><stop offset="0" stop-color="#abbec6"/><stop offset="1" stop-color="#fff"/></linearGradient><linearGradient id="linear-gradient-3" x1="132.86" y1="1363.48" x2="118.36" y2="722.67" gradientUnits="userSpaceOnUse"><stop offset="0" stop-color="#8a4cff"/><stop offset="1" stop-color="#3350b8"/></linearGradient><linearGradient id="linear-gradient-4" x1="83.47" y1="1158.2" x2="174.02" y2="1158.2" gradientUnits="userSpaceOnUse"><stop offset="0" stop-color="#3350b8"/><stop offset="1" stop-color="#8a4cff"/></linearGradient><linearGradient id="linear-gradient-5" x1="1000" y1="1346.56" x2="985.5" y2="705.75" xlink:href="#linear-gradient-3"/><linearGradient id="linear-gradient-6" x1="950.47" y1="1158.2" x2="1041.02" y2="1158.2" xlink:href="#linear-gradient-4"/></defs><path class="cls-1" d="M42.61,65.08V1280a14.85,14.85,0,0,0,14.85,14.85h238a14.85,14.85,0,0,0,14.26-10.69l6.41-22a14.86,14.86,0,0,1,14.26-10.7H780.08a14.85,14.85,0,0,1,14.26,10.7l6.41,22A14.85,14.85,0,0,0,815,1294.83h242.91a14.85,14.85,0,0,0,14.85-14.85V65.08a14.85,14.85,0,0,0-14.85-14.85H57.46A14.85,14.85,0,0,0,42.61,65.08Z"/><path class="cls-1" d="M57.63,91.93V1251a29.26,29.26,0,0,0,29.26,29.25H292.12a29.26,29.26,0,0,0,28.09-21.07h0a29.26,29.26,0,0,1,28.09-21.07H766.2a29.27,29.27,0,0,1,28.09,21.07h0a29.25,29.25,0,0,0,28.09,21.07h209.95a29.26,29.26,0,0,0,29.26-29.25V91.93a29.26,29.26,0,0,0-29.26-29.26H86.89A29.26,29.26,0,0,0,57.63,91.93Z"/><polygon class="cls-2" points="995.65 1176.79 126.39 1176.79 126.39 169.93 126.39 132.72 995.65 132.72 995.65 1176.79"/><polygon class="cls-3" points="853.13 1255.81 838.69 1255.81 861.03 1218.93 875.46 1218.93 853.13 1255.81"/><polygon class="cls-3" points="887.26 1255.81 872.83 1255.81 895.16 1218.93 909.6 1218.93 887.26 1255.81"/><polygon class="cls-3" points="921.39 1255.81 906.96 1255.81 929.3 1218.93 943.74 1218.93 921.39 1255.81"/><polygon class="cls-3" points="273.01 1255.81 287.45 1255.81 265.11 1218.93 250.68 1218.93 273.01 1255.81"/><polygon class="cls-3" points="238.88 1255.81 253.31 1255.81 230.97 1218.93 216.54 1218.93 238.88 1255.81"/><polygon class="cls-3" points="204.74 1255.81 219.18 1255.81 196.84 1218.93 182.4 1218.93 204.74 1255.81"/><path class="cls-4" d="M129.17,133v43.72l.63-.25h.07c2.74-12.24,13.31-21.37,25.94-21.37H966.23c12.72,0,23.35,9.25,26,21.62h2.49V133Z"/><path class="cls-5" d="M998.38,1145.19H126.11V127.74H998.38Zm-867-5.27H993.11V133H131.38Z"/><polygon class="cls-6" points="83.97 1234.74 83.97 1175.91 83.97 1081.98 173.52 1128.44 173.52 1175.91 173.52 1234.74 83.97 1234.74"/><polygon class="cls-7" points="950.97 1234.74 950.97 1175.91 950.97 1128.44 1040.52 1081.98 1040.52 1175.91 1040.52 1234.74 950.97 1234.74"/><path class="cls-8" d="M16.17,40.34V1303a18.68,18.68,0,0,0,18.6,18.76H294.25c15.32,0,23.08-11.81,28.11-26.41,4.08-11.85,10.84-19.76,23.79-19.76H766.09c10.23,0,17.35,6.81,20.21,16.71l.39,1.54c3.79,13.11,11,27.92,24.54,27.92H1073.6a23.11,23.11,0,0,0,23-23.21V40.33c0-12.81-10.3-23.2-23-21.31H39.19C26.47,17.13,16.17,27.52,16.17,40.34Z"/></svg>