<?xml version="1.0" encoding="utf-8"?>
<!-- Generator: Adobe Illustrator 26.0.1, SVG Export Plug-In . SVG Version: 6.00 Build 0)  -->
<svg version="1.1" id="Layer_1" xmlns="http://www.w3.org/2000/svg" xmlns:xlink="http://www.w3.org/1999/xlink" x="0px" y="0px"
	 viewBox="0 0 67.6 67.6" style="enable-background:new 0 0 67.6 67.6;" xml:space="preserve">
<style type="text/css">
	.st0{fill:#AFB9D2;}
	.st1{fill:#FFFFFF;}
</style>
<g>
	<g id="_x33_58_x2C__Basic_x2C__General_x2C__Gear_x2C__Wheel_00000038396659990899704880000004162615003472538772_">
		<g id="XMLID_00000006670309548877995660000002600012640710711199_">
			<g id="XMLID_00000042007524417156244590000006606249685140038335_">
				<path id="XMLID_00000125569937613802294680000001782695322082437543_" class="st0" d="M33.8,18.2c8.6,0,15.7,7,15.7,15.6
					s-7.1,15.6-15.7,15.6s-15.7-7-15.7-15.6C18.1,25.3,25.2,18.2,33.8,18.2z M42.2,33.9c0-4.6-3.8-8.3-8.4-8.3
					c-4.7,0-8.4,3.8-8.4,8.3c0,4.6,3.8,8.4,8.4,8.4C38.5,42.2,42.2,38.5,42.2,33.9z"/>
			</g>
			<g id="XMLID_00000113352229530845415160000003216058922365038246_">
				<g>
					<path id="XMLID_00000042003431963756866260000012402189970456405163_" class="st1" d="M64.1,31v5.7c0,1.4-1.1,2.6-2.5,2.7
						l-4.3,0.2c-0.6,2.3-1.4,4.4-2.6,6.3l2.9,3.3c1,1.1,0.8,2.6-0.1,3.7l-4.1,4c-1,1-2.6,1.1-3.7,0.1l-3.4-2.9
						c-1.9,1.2-4.1,2-6.4,2.6l-0.4,4.3c-0.1,1.4-1.3,2.5-2.8,2.5h-5.8c-1.4,0-2.6-1.1-2.8-2.5l-0.4-4.4c-2.3-0.6-4.4-1.4-6.4-2.6
						l-3.2,3c-1.1,1-2.6,0.8-3.7-0.1l-4.1-4c-1-1-1.1-2.6-0.1-3.7l2.9-3.3c-1.2-1.9-2-4-2.6-6.3l-4.4-0.4c-1.4-0.1-2.5-1.3-2.5-2.7
						V31c0-1.4,1.1-2.6,2.5-2.7l4.3-0.4c0.6-2.3,1.4-4.4,2.6-6.3l-2.9-3.3c-1-1.1-0.8-2.6,0.1-3.7l4.1-4c1-1,2.6-1.1,3.7-0.1
						l3.4,2.9c1.9-1.2,4.1-2,6.4-2.6l0.4-4.3c0.1-1.4,1.3-2.5,2.8-2.5h5.8c1.4,0,2.6,1.1,2.8,2.5l0.4,4.3c2.3,0.6,4.4,1.4,6.4,2.6
						l3.4-2.9c1.1-1,2.6-0.8,3.7,0.1l4.1,4c1,1,1.1,2.6,0.1,3.7l-2.9,3.3c1.2,1.9,2,4,2.6,6.3l4.4,0.4C63,28.4,64.1,29.6,64.1,31z
						 M49.5,33.9c0-8.6-7.1-15.6-15.7-15.6s-15.7,7-15.7,15.6c0,8.6,7.1,15.6,15.7,15.6S49.5,42.4,49.5,33.9z"/>
				</g>
			</g>
		</g>
	</g>
</g>
</svg>
