<?xml version="1.0" encoding="utf-8"?>
<!-- Generator: Adobe Illustrator 26.0.1, SVG Export Plug-In . SVG Version: 6.00 Build 0)  -->
<svg version="1.1" id="Layer_1" xmlns="http://www.w3.org/2000/svg" xmlns:xlink="http://www.w3.org/1999/xlink" x="0px" y="0px"
	 viewBox="0 0 135.2 67.6" style="enable-background:new 0 0 135.2 67.6;" xml:space="preserve">
<style type="text/css">
	.st0{fill:#FFFFFF;}
</style>
<path class="st0" d="M33.7,44.5v16.2c0,0.8-0.9,1.2-1.5,0.7L16.5,48.6c0,0,0,0,0,0h-6.1c-2.6,0-4.7-2.1-4.7-4.7V25.2
	c0-2.4,1.8-4.4,4.1-4.6c0,0,0,0,0,0L33.7,44.5L33.7,44.5z M38.4,50.9v4.6c0,0,0,0,0,0h2.3c1.2,0,2.5-0.1,3.7-0.3c0,0,0,0,0-0.1
	l-4.3-4.3c0,0,0,0,0,0L38.4,50.9C38.4,50.9,38.4,50.9,38.4,50.9z M53.6,51.1l8,8c0,0,0,0,0,0l-3.3,3.3c0,0,0,0,0,0L5.8,10
	c0,0,0,0,0,0l3.3-3.3c0,0,0,0,0,0l11,11c0,0,0,0,0,0l12.1-9.8c0.6-0.5,1.5-0.1,1.5,0.7v22.7c0,0,0,0,0,0l9.7,9.7c0,0,0,0,0,0
	c2.7-1.2,4.5-4,4.2-7.1c-0.3-3.6-3.6-6.3-7.2-6.3l-2.1,0c0,0,0,0,0,0v-4.6c0,0,0,0,0,0l2,0c6.1,0,11.4,4.6,11.9,10.7
	c0.4,4.5-1.8,8.6-5.4,10.9c0,0,0,0,0,0l3.3,3.3c0,0,0.1,0,0.2,0c4.1-3.1,6.6-8,6.6-13.3c0-9-7.3-16.3-16.3-16.3h-2.3c0,0,0,0,0,0
	v-4.6c0,0,0,0,0,0h2.3c11.6,0,21,9.4,21,21C61.7,41.1,58.7,47.2,53.6,51.1L53.6,51.1z"/>
<g>
	<path class="st0" d="M79.2,20.6c-3.1,0-5.6,2.5-5.6,5.6v17c0,3.1,2.5,5.6,5.6,5.6h5.3c0.2,0,0.4,0.1,0.6,0.2l15.2,12.6
		c0.6,0.5,1.5,0.1,1.5-0.7V8.5c0-0.8-0.9-1.2-1.5-0.7L85.1,20.4c-0.2,0.1-0.4,0.2-0.6,0.2H79.2z"/>
	<path class="st0" d="M119.9,34.7c0-6.5-5.3-11.7-11.7-11.7h-2.3c0,0,0,0,0,0v4.7c0,0,0,0,0,0l2.1,0c3.9,0,7.2,3,7.3,6.9
		c0.1,3.9-3.1,7.2-7,7.2h-2.3c0,0,0,0,0,0v4.7c0,0,0,0,0,0h2.3C114.6,46.4,119.9,41.1,119.9,34.7z"/>
	<path class="st0" d="M107.7,13.5h-1.9c0,0,0,0,0,0v4.7c0,0,0,0,0,0h2c9,0,16.5,7,16.8,16c0.2,9.3-7.2,16.9-16.4,16.9h-2.3
		c0,0,0,0,0,0v4.7c0,0,0,0,0,0h2.3c11.2,0,20.4-8.7,21.1-19.8C130,23.7,120,13.5,107.7,13.5z"/>
</g>
</svg>
