<?xml version="1.0" encoding="UTF-8"?>
<svg id="b" data-name="Layer 1" xmlns="http://www.w3.org/2000/svg" viewBox="0 0 103 100">
  <path d="M81.36,10.1l5.27,4.73c.13.8,2.58,15.94,11.42,25.82l-5.27-4.73c-8.84-9.88-11.29-25.02-11.42-25.82Z" style="fill: #bdbdbd; stroke-width: 0px;"/>
  <path d="M92.78,35.92l5.27,4.73c-.77,2.5-15.41,50.01-67.84,59.3l-5.26-4.73c52.43-9.29,67.07-56.8,67.84-59.3Z" style="fill: #858585; stroke-width: 0px;"/>
  <path d="M93.3,36.38l-.51-.46c-.77,2.5-15.41,50.01-67.84,59.3l.56.51c51.59-9.17,66.61-55.55,67.79-59.35Z" style="fill: #bdbdbd; stroke-width: 0px;"/>
  <path d="M70.68,13.56c-.49-3.04,2.19,13.72,9.79,22.26.64-2.08-12.38,40.15-55.96,47.85C-5.29,57.41,15.18,17.06,14.17,19.05c12.48-3.47,26.99-15.88,24.35-13.63l32.16,8.13Z" style="fill: #931435; stroke-width: 0px;"/>
  <path d="M25.25,81.07C1.62,59.28,13.04,27.89,15.94,21.05c8.92-2.8,18.45-9.47,23.1-13l29.65,7.5c1.24,5.09,4.03,14.41,9.02,20.73-2.94,7.45-17,37.93-52.46,44.79Z" style="fill: #af193a; stroke-width: 0px;"/>
  <g>
    <path d="M61.76,13.79l-22.72-5.75c-1.43,1.09-3.33,2.48-5.54,3.96l27.06,50.21c7.99-8.01,12.87-16.58,15.44-22l-14.24-26.42Z" style="fill: #db1f48; stroke-width: 0px;"/>
    <path d="M30.79,79.75c6.13-1.71,11.54-4.13,16.31-6.99L18.69,20.06c-.92.36-1.84.7-2.75.98-1.33,3.14-4.44,11.43-5.15,21.59l20,37.11Z" style="fill: #db1f48; stroke-width: 0px;"/>
  </g>
  <g>
    <path d="M58.8,41.3c0-10.42-8.44-18.86-18.86-18.86-.27,0-.54,0-.81.02l16.1,29.87c2.24-3.1,3.57-6.91,3.57-11.03Z" style="fill: #fff; stroke-width: 0px;"/>
    <path d="M21.08,41.3c0,10.42,8.44,18.86,18.86,18.86.12,0,.24,0,.36,0l-15.91-29.52c-2.09,3.03-3.31,6.71-3.31,10.67Z" style="fill: #fff; stroke-width: 0px;"/>
    <path d="M55.24,52.34l-16.1-29.87c-6.12.26-11.49,3.43-14.74,8.17l15.91,29.52c6.15-.12,11.57-3.17,14.93-7.82Z" style="fill: #f2f0f1; stroke-width: 0px;"/>
  </g>
  <polygon points="53.95 41.3 28.09 35.38 26.56 41.88 39.27 44.91 51.96 47.94 53.42 42.92 53.95 41.3" style="fill: #db1f48; stroke-width: 0px;"/>
  <path d="M41,1.17c-.79,1.36-1.41,2.52-2.16,3.98.04-.07-13.17,10.71-24.66,13.9l-.82-3.22C27.83,11.84,40.95.64,41.64.05l-.65,1.11Z" style="fill: #6e6e6e; stroke-width: 0px;"/>
  <path d="M13.8,17.59c.06.23.2.78.41,1.39,0,.03-18.78,39.07,10.31,64.68l.42,11.56C-10.89,63.6,12.14,18.21,13.35,15.83l.45,1.76Z" style="fill: #858585; stroke-width: 0px;"/>
  <path d="M70.63,13.19c4.82-1.18,6.8-1.82,10.73-3.09.13.8,2.58,15.94,11.42,25.82l-12.3-.1c-6.98-7.85-9.82-22.63-9.85-22.62Z" style="fill: #fff; stroke-width: 0px;"/>
  <path d="M80.5,35.74q2.91.1,12.28.18c-.77,2.5-15.41,50.01-67.84,59.3l-.42-11.56c42.53-7.51,55.96-47.92,55.98-47.92Z" style="fill: #a3a3a3; stroke-width: 0px;"/>
  <polygon points="41.64 .05 38.52 5.42 70.68 13.56 81.36 10.1 41.64 .05" style="fill: #e6e6e6; stroke-width: 0px;"/>
  <polygon points="24.94 95.22 24.52 83.66 25.08 83.56 25.54 95.2 24.94 95.22" style="fill: #bdbdbd; stroke-width: 0px;"/>
  <g>
    <path d="M39.05,91.54c4.68-1.64,8.97-3.61,12.92-5.79l-6.48-9.3c-3.98,2.14-8.37,3.98-13.19,5.4l6.75,9.7Z" style="fill: #b5b5b5; stroke-width: 0px;"/>
    <path d="M77.23,43.15c-2.46,4.82-6.42,11.39-12.29,17.91l6.69,9.6c5.54-5.72,9.77-11.65,12.95-16.96l-7.35-10.55Z" style="fill: #b5b5b5; stroke-width: 0px;"/>
  </g>
</svg>