<?xml version="1.0" encoding="UTF-8"?>
<svg id="b" data-name="Layer 1" xmlns="http://www.w3.org/2000/svg" viewBox="0 0 103 100">
  <path d="M72.34,22.15l3.68,3.3c.09.56,1.8,11.13,7.97,18.02l-3.68-3.3c-6.17-6.9-7.88-17.47-7.97-18.02Z" style="fill: #bdbdbd; stroke-width: 0px;"/>
  <path d="M80.32,40.17l3.68,3.3c-.54,1.75-10.76,34.91-47.35,41.39l-3.67-3.3c36.59-6.49,46.82-39.65,47.35-41.39Z" style="fill: #858585; stroke-width: 0px;"/>
  <path d="M80.67,40.49l-.36-.32c-.54,1.75-10.76,34.91-47.35,41.39l.39.35c36.01-6.4,46.5-38.78,47.32-41.43Z" style="fill: #bdbdbd; stroke-width: 0px;"/>
  <path d="M64.89,24.56c-.34-2.12,1.53,9.57,6.84,15.54.45-1.45-8.64,28.03-39.06,33.4-20.81-18.32-6.52-46.49-7.22-45.1,8.71-2.42,18.84-11.08,17-9.51l22.45,5.68Z" style="fill: #931435; stroke-width: 0px;"/>
  <path d="M33.18,71.69c-16.49-15.21-8.52-37.12-6.5-41.9,6.23-1.95,12.88-6.61,16.12-9.07l20.7,5.23c.86,3.56,2.81,10.06,6.3,14.47-2.05,5.2-11.86,26.48-36.62,31.26Z" style="fill: #af193a; stroke-width: 0px;"/>
  <g>
    <path d="M58.66,24.73l-15.86-4.01c-1,.76-2.33,1.73-3.87,2.76l18.89,35.05c5.58-5.59,8.98-11.57,10.78-15.36l-9.94-18.44Z" style="fill: #db1f48; stroke-width: 0px;"/>
    <path d="M37.04,70.76c4.28-1.19,8.05-2.89,11.38-4.88L28.6,29.1c-.64.25-1.28.49-1.92.69-.93,2.19-3.1,7.98-3.6,15.07l13.96,25.9Z" style="fill: #db1f48; stroke-width: 0px;"/>
  </g>
  <g>
    <path d="M56.6,43.93c0-7.27-5.89-13.17-13.17-13.17-.19,0-.38,0-.56.01l11.24,20.85c1.57-2.17,2.49-4.82,2.49-7.7Z" style="fill: #fff; stroke-width: 0px;"/>
    <path d="M30.27,43.93c0,7.27,5.89,13.17,13.17,13.17.08,0,.17,0,.25,0l-11.11-20.61c-1.46,2.12-2.31,4.68-2.31,7.45Z" style="fill: #fff; stroke-width: 0px;"/>
    <path d="M54.11,51.63l-11.24-20.85c-4.27.18-8.02,2.4-10.29,5.7l11.11,20.61c4.29-.08,8.08-2.21,10.42-5.46Z" style="fill: #f2f0f1; stroke-width: 0px;"/>
  </g>
  <polygon points="53.21 43.93 35.16 39.79 34.09 44.33 42.96 46.45 51.82 48.56 52.84 45.06 53.21 43.93" style="fill: #db1f48; stroke-width: 0px;"/>
  <path d="M44.17,15.91c-.55.95-.99,1.76-1.51,2.78.02-.05-9.2,7.47-17.22,9.7l-.57-2.25c10.1-2.78,19.27-10.6,19.75-11.01l-.45.78Z" style="fill: #6e6e6e; stroke-width: 0px;"/>
  <path d="M25.18,27.37c.04.16.14.54.29.97,0,.02-13.11,27.27,7.2,45.15l.3,8.07C7.95,59.5,24.02,27.81,24.87,26.15l.31,1.23Z" style="fill: #858585; stroke-width: 0px;"/>
  <path d="M64.85,24.31c3.37-.82,4.74-1.27,7.49-2.16.09.56,1.8,11.13,7.97,18.02l-8.59-.07c-4.88-5.48-6.85-15.8-6.88-15.79Z" style="fill: #fff; stroke-width: 0px;"/>
  <path d="M71.74,40.05q2.03.07,8.57.12c-.54,1.75-10.76,34.91-47.35,41.39l-.3-8.07c29.69-5.24,39.06-33.45,39.08-33.45Z" style="fill: #a3a3a3; stroke-width: 0px;"/>
  <polygon points="44.62 15.13 42.44 18.88 64.89 24.56 72.34 22.15 44.62 15.13" style="fill: #e6e6e6; stroke-width: 0px;"/>
  <polygon points="32.96 81.56 32.67 73.5 33.06 73.43 33.38 81.55 32.96 81.56" style="fill: #bdbdbd; stroke-width: 0px;"/>
  <g>
    <path d="M42.81,78.99c3.27-1.14,6.26-2.52,9.02-4.04l-4.52-6.49c-2.78,1.49-5.84,2.78-9.21,3.77l4.71,6.77Z" style="fill: #b5b5b5; stroke-width: 0px;"/>
    <path d="M69.46,45.22c-1.72,3.36-4.48,7.95-8.58,12.5l4.67,6.7c3.87-3.99,6.82-8.13,9.04-11.84l-5.13-7.36Z" style="fill: #b5b5b5; stroke-width: 0px;"/>
  </g>
</svg>