<?xml version="1.0" encoding="UTF-8"?>
<svg id="b" data-name="Layer 1" xmlns="http://www.w3.org/2000/svg" viewBox="0 0 103 100">
  <path d="M93.35,51.83c0,22.54-18.33,40.87-40.87,40.87S11.61,74.37,11.61,51.83v-2.24h81.74v2.24Z" style="fill: #c8d3dd; stroke-width: 0px;"/>
  <circle cx="52.48" cy="49.59" r="40.87" transform="translate(-14.98 23.86) rotate(-22.5)" style="fill: #9b9b9b; stroke-width: 0px;"/>
  <circle cx="52.48" cy="51.5" r="37.57" transform="translate(-15.71 24) rotate(-22.5)" style="fill: #182235; stroke-width: 0px;"/>
  <circle cx="52.48" cy="49.13" r="33.89" transform="translate(-14.81 23.82) rotate(-22.5)" style="fill: #1f2941; stroke-width: 0px;"/>
  <circle cx="52.48" cy="48.2" r="7.39" style="fill: #1f2941; stroke-width: 0px;"/>
  <path d="M66.42,56.9l-6.73-8.38,5.83-6.82c.68-.76,1.18-1.42,1.52-2.02.43-.73.65-1.52.65-2.33,0-.86-.29-2.1-1.68-3.14-.98-.73-2.2-1.1-3.62-1.1-1.27,0-2.37.33-3.26.97-.75.54-1.59,1.37-2.55,2.54l-4.08,4.99-4.21-5c-.93-1.12-1.75-1.93-2.49-2.49-.9-.67-2.01-1.01-3.31-1.01-1.45,0-2.68.38-3.64,1.14-1.32,1.05-1.6,2.27-1.6,3.1,0,1.35.69,2.77,2.09,4.33l5.85,6.84-6.73,8.37c-1.39,1.72-2.03,3.05-2.03,4.19,0,.84.29,2.07,1.69,3.15,1.01.78,2.22,1.17,3.61,1.17,1.28,0,2.37-.33,3.25-.98.72-.53,1.55-1.37,2.54-2.56l4.98-6.21,4.87,6.22c.94,1.15,1.78,1.98,2.55,2.54.92.66,2.02,1,3.29,1,1.4,0,2.61-.38,3.6-1.12,1.4-1.05,1.7-2.29,1.7-3.16,0-1.13-.65-2.44-2.09-4.24Z" style="fill: #fff; stroke-width: 0px;"/>
</svg>