<?xml version="1.0" encoding="UTF-8"?>
<svg xmlns="http://www.w3.org/2000/svg" viewBox="0 0 103 100">
  <g style="isolation: isolate;">
    <g id="b" data-name="Layer 1">
      <g>
        <polygon points="64.31 16.49 67.99 20.45 72.02 40.69 68.34 36.73 64.31 16.49" style="fill: #671f73; stroke-width: 0px;"/>
        <polygon points="55.85 63.61 59.53 67.57 38.68 83.51 35 79.55 55.85 63.61" style="fill: #7b258a; stroke-width: 0px;"/>
        <polygon points="78.83 53.07 82.51 57.03 59.53 67.57 55.85 63.61 78.83 53.07" style="fill: #671f73; stroke-width: 0px;"/>
        <polygon points="68.34 36.73 72.02 40.69 82.51 57.03 78.83 53.07 68.34 36.73" style="fill: #982eab; stroke-width: 0px;"/>
        <polygon points="44.39 42.02 68.34 36.73 64.31 16.49 44.39 42.01 44.39 42.02" style="fill: #982eab; stroke-width: 0px;"/>
        <polygon points="44.39 42.02 78.83 53.07 68.34 36.73 68.34 36.73 44.39 42.02 44.39 42.02" style="fill: #bd39d4; stroke-width: 0px;"/>
        <rect x="44.39" y="42.01" width="0" height="0" transform="translate(-15.4 54.71) rotate(-55.41)" style="fill: #c03229; stroke-width: 0px;"/>
        <polygon points="44.39 42.02 44.39 42.02 44.39 42.02 44.39 42.02" style="fill: #c03229; stroke-width: 0px;"/>
        <polygon points="44.39 42.02 44.39 42.02 44.39 42.02 44.39 42.02" style="fill: #c03229; stroke-width: 0px;"/>
        <polygon points="44.39 42.02 20.49 42.97 30.98 59.3 30.98 59.3 44.39 42.02 44.39 42.02" style="fill: #982eab; stroke-width: 0px;"/>
        <polygon points="44.39 42.02 44.39 42.02 35 79.55 55.85 63.61 55.85 63.61 44.39 42.02 44.39 42.02" style="fill: #aa33bf; stroke-width: 0px;"/>
        <polygon points="44.39 42.02 55.85 63.61 78.83 53.07 44.39 42.02" style="fill: #982eab; stroke-width: 0px;"/>
        <polygon points="64.31 16.49 43.47 32.43 43.47 32.43 44.39 42.01 64.31 16.49" style="fill: #ef98ff; stroke-width: 0px;"/>
        <polygon points="44.39 42.01 43.47 32.43 20.49 42.97 44.39 42.02 44.39 42.01" style="fill: #e152fa; stroke-width: 0px;"/>
        <polygon points="30.98 59.3 35 79.55 44.39 42.02 30.98 59.3" style="fill: #bd39d4; stroke-width: 0px;"/>
        <polygon points="56.1 63.92 79.11 53.37 78.83 53.07 55.85 63.61 35 79.55 35.27 79.84 56.1 63.92" style="fill: #ef98ff; mix-blend-mode: overlay; opacity: .7; stroke-width: 0px;"/>
        <path d="M44.39,42.02s2.14.64,5.34,1.61c1.6.5,3.47,1.07,5.46,1.69,2,.63,4.12,1.31,6.25,1.98,2.12.69,4.25,1.38,6.23,2.03,1.99.66,3.84,1.27,5.43,1.8,3.17,1.08,5.28,1.8,5.28,1.8,0,0-2.14-.64-5.34-1.61-1.6-.5-3.47-1.07-5.46-1.7-2-.63-4.12-1.31-6.25-1.98-2.12-.69-4.25-1.38-6.23-2.03-1.99-.66-3.84-1.27-5.43-1.8-3.17-1.08-5.28-1.8-5.28-1.8Z" style="fill: #e152fa; stroke-width: 0px;"/>
        <path d="M43.67,44.9s-.09.46-.25,1.27c-.17.8-.39,1.96-.7,3.33-.31,1.37-.65,2.98-1.06,4.7-.4,1.71-.85,3.54-1.3,5.36-.46,1.82-.92,3.64-1.38,5.34-.45,1.7-.91,3.28-1.28,4.64-.37,1.36-.73,2.48-.95,3.27-.24.79-.38,1.24-.38,1.24,0,0,.09-.46.24-1.27.17-.8.39-1.96.7-3.33.31-1.37.65-2.98,1.06-4.69.4-1.71.85-3.53,1.3-5.36.46-1.82.92-3.64,1.38-5.34.45-1.7.91-3.28,1.28-4.64.37-1.36.73-2.48.95-3.27.24-.79.38-1.23.38-1.23Z" style="fill: #982eab; stroke-width: 0px;"/>
      </g>
    </g>
  </g>
</svg>