<?xml version="1.0" encoding="UTF-8"?>
<svg id="b" data-name="Layer 1" xmlns="http://www.w3.org/2000/svg" viewBox="0 0 103 100">
  <path d="M24.8,74.87c1.13-1.09,2.25-2.2,3.35-3.31l-2.77-4.81c-1.1,1.11-2.21,2.2-3.33,3.29-.38.37-.76.73-1.15,1.1-.86.82-1.72,1.65-2.59,2.46l2.77,4.81c.22-.21.44-.41.66-.62.65-.61,1.29-1.24,1.94-1.86.37-.36.75-.71,1.12-1.07Z" style="fill: #9ea4bd; stroke-width: 0px;"/>
  <path d="M18.31,73.61c-1.73-.84-3.46-1.68-5.19-2.53l2.77,4.81c1.73.84,5.9,2.96,7.63,3.8l-5.21-6.08Z" style="fill: #9ea4bd; stroke-width: 0px;"/>
  <path d="M18.49,73.92l-.18-.31c-1.73-.84-3.46-1.68-5.19-2.53l.18.31c1.73.84,3.46,1.68,5.19,2.52Z" style="fill: #fff; stroke-width: 0px;"/>
  <path d="M38,83.5l-.25-.44c-5.75-1.94-11.23-4.37-16.98-6.3l.24.42c5.73,1.99,11.24,4.38,16.99,6.32Z" style="fill: #fff; stroke-width: 0px;"/>
  <path d="M63.69,50.04c5.9-9.14,11.15-18.58,15.72-28.24l-.21-.36c-4.5,9.65-9.71,19.07-15.59,28.17-7.56,11.71-16.21,22.91-25.87,33.45l.25.44c9.55-10.58,18.15-21.78,25.69-33.46Z" style="fill: #fff; stroke-width: 0px;"/>
  <g>
    <path d="M71.64,16.51l-.17-.02c-1.17,1.45.17.02.17.02Z" style="fill: #f5e9e1; stroke-width: 0px;"/>
    <path d="M39.84,34.42l14.59,28.39c3.03-4.08,5.92-8.24,8.67-12.47l-15.46-30.08c-2.43,4.79-5.03,9.5-7.8,14.15Z" style="fill: #f2f4f9; stroke-width: 0px;"/>
    <path d="M23.41,58.54l12.25,23.83c.68.24,1.36.48,2.04.71,2.67-2.91,5.26-5.88,7.77-8.89l-13.85-26.95c-2.62,3.83-5.36,7.59-8.21,11.29Z" style="fill: #e6eaf5; stroke-width: 0px;"/>
    <path d="M13.08,71.1c.88.43,1.77.86,2.65,1.29l-1.4-2.73c-.42.48-.82.96-1.24,1.44Z" style="fill: #e6eaf5; stroke-width: 0px;"/>
    <path d="M79.16,21.46c-2.54-1.68-5.08-3.36-7.63-5.05-.02.03-.04.05-.06.08l.17.02s-1.34,1.43-.17-.02l-3.92-.52c-2.66-.43-5.32-.86-7.99-1.3l11.54,22.45c2.89-5.14,5.58-10.37,8.06-15.67Z" style="fill: #f2f4f9; stroke-width: 0px;"/>
    <path d="M71.1,37.12l-11.54-22.45c-2.84-.46-5.68-.92-8.52-1.38-1.09,2.34-2.23,4.67-3.4,6.98l15.46,30.08c.16-.24.32-.48.47-.72,2.65-4.11,5.16-8.28,7.53-12.51Z" style="fill: #fff; stroke-width: 0px;"/>
    <path d="M35.35,41.66c-1.21,1.88-2.46,3.74-3.73,5.59l13.85,26.95c3.11-3.72,6.1-7.51,8.96-11.37l-14.59-28.39c-1.45,2.43-2.94,4.84-4.49,7.23Z" style="fill: #fff; stroke-width: 0px;"/>
    <path d="M18.09,73.88s0,0,0,0c0,0,0,0,0,0Z" style="fill: #fcf7f5; stroke-width: 0px;"/>
    <path d="M14.33,69.66l1.4,2.73c.85.41,1.69.82,2.54,1.24,2.33-2.17,0,.09-.17.25.06-.04.49-.13,2.62,2.91,5.07,1.71,9.93,3.8,14.94,5.59l-12.25-23.83c-2.91,3.78-5.94,7.48-9.09,11.12Z" style="fill: #fff; stroke-width: 0px;"/>
  </g>
  <g>
    <path d="M30.43,80.61l2.4,4.66c2.61,1.01,5.22,2.02,7.89,2.92l-2.77-4.81c-2.54-.86-5.03-1.81-7.52-2.77Z" style="fill: #9ea4bd; stroke-width: 0px;"/>
    <path d="M63.82,49.93c-3.41,5.29-7.05,10.48-10.91,15.55l2.59,5.04c3.92-5.14,7.62-10.41,11.09-15.78.29-.45.58-.91.86-1.36l-2.6-5.07c-.34.54-.68,1.09-1.03,1.63Z" style="fill: #9ea4bd; stroke-width: 0px;"/>
    <path d="M37.95,83.38l2.77,4.81c1.95-2.13,3.86-4.29,5.73-6.47l-2.58-5.03c-1.93,2.26-3.9,4.49-5.92,6.69Z" style="fill: #9ea4bd; stroke-width: 0px;"/>
    <path d="M82.18,26.57l-2.77-4.81c-2.07,4.43-4.29,8.81-6.65,13.13l2.62,5.09c2.42-4.42,4.69-8.89,6.81-13.42Z" style="fill: #9ea4bd; stroke-width: 0px;"/>
    <path d="M72.76,34.89c-2.48,4.54-5.12,9.01-7.91,13.41l2.6,5.07c2.8-4.4,5.44-8.86,7.92-13.39l-2.62-5.09Z" style="fill: #e1e6f4; stroke-width: 0px;"/>
    <path d="M43.87,76.69l2.58,5.03c3.14-3.66,6.15-7.4,9.05-11.2l-2.59-5.04c-2.89,3.81-5.91,7.54-9.04,11.21Z" style="fill: #c7cfed; stroke-width: 0px;"/>
    <path d="M20.97,77.08l2.77,4.81c3.08,1.04,6.08,2.22,9.09,3.38l-2.4-4.66c-3.13-1.22-6.26-2.45-9.47-3.53Z" style="fill: #afb8d3; stroke-width: 0px;"/>
  </g>
  <g>
    <g>
      <path d="M76.79,11.81c4.36,7.9,7.57,20.39,7.5,29.43-4.38-7.9-7.55-20.39-7.5-29.43h0Z" style="fill: #ffe70f; stroke-width: 0px;"/>
      <path d="M69.55,25.43c5.5-3.26,13.98-5.47,20.37-5.28-5.49,3.27-13.98,5.45-20.37,5.28h0Z" style="fill: #ffe70f; stroke-width: 0px;"/>
    </g>
    <path d="M84.4,15.46c-1.31,2.76-3,5.42-4.68,7.97-1.73,2.55-3.53,5.05-5.61,7.34,1.34-2.79,2.97-5.4,4.68-7.97,1.72-2.52,3.55-5.09,5.61-7.34h0Z" style="fill: #ffe70f; stroke-width: 0px;"/>
  </g>
</svg>