<?xml version="1.0" encoding="UTF-8"?>
<svg xmlns="http://www.w3.org/2000/svg" viewBox="0 0 103 100">
  <g style="isolation: isolate;">
    <g id="b" data-name="Layer 1">
      <g>
        <polygon points="70.61 0 76.11 5.91 82.12 36.11 76.63 30.2 70.61 0" style="fill: #671f73; stroke-width: 0px;"/>
        <polygon points="57.99 70.3 63.48 76.21 32.37 100 26.88 94.09 57.99 70.3" style="fill: #7b258a; stroke-width: 0px;"/>
        <polygon points="92.28 54.58 97.77 60.49 63.48 76.21 57.99 70.3 92.28 54.58" style="fill: #671f73; stroke-width: 0px;"/>
        <polygon points="76.63 30.2 82.12 36.11 97.77 60.49 92.28 54.58 76.63 30.2" style="fill: #982eab; stroke-width: 0px;"/>
        <polygon points="40.9 38.09 76.63 30.2 70.61 0 40.89 38.08 40.9 38.09" style="fill: #982eab; stroke-width: 0px;"/>
        <polygon points="40.9 38.09 92.28 54.58 76.63 30.2 76.63 30.2 40.9 38.09 40.9 38.09" style="fill: #bd39d4; stroke-width: 0px;"/>
        <rect x="40.89" y="38.08" width="0" height="0" transform="translate(-13.68 50.13) rotate(-55.41)" style="fill: #c03229; stroke-width: 0px;"/>
        <polygon points="40.89 38.09 40.9 38.09 40.9 38.09 40.89 38.09" style="fill: #c03229; stroke-width: 0px;"/>
        <polygon points="40.89 38.09 40.89 38.09 40.89 38.09 40.89 38.09" style="fill: #c03229; stroke-width: 0px;"/>
        <polygon points="40.89 38.09 5.23 39.51 20.88 63.88 20.88 63.88 40.89 38.09 40.89 38.09" style="fill: #982eab; stroke-width: 0px;"/>
        <polygon points="40.89 38.09 40.89 38.09 26.88 94.09 57.99 70.3 57.99 70.3 40.9 38.09 40.89 38.09" style="fill: #aa33bf; stroke-width: 0px;"/>
        <polygon points="40.9 38.09 57.99 70.3 92.28 54.58 40.9 38.09" style="fill: #982eab; stroke-width: 0px;"/>
        <polygon points="70.61 0 39.52 23.78 39.52 23.78 40.89 38.08 70.61 0" style="fill: #ef98ff; stroke-width: 0px;"/>
        <polygon points="40.89 38.08 39.52 23.78 5.23 39.51 40.89 38.09 40.89 38.08" style="fill: #e152fa; stroke-width: 0px;"/>
        <polygon points="20.88 63.88 26.88 94.09 40.89 38.09 20.88 63.88" style="fill: #bd39d4; stroke-width: 0px;"/>
        <polygon points="58.36 70.77 92.7 55.03 92.28 54.58 57.99 70.3 26.88 94.09 27.29 94.53 58.36 70.77" style="fill: #ef98ff; mix-blend-mode: overlay; opacity: .7; stroke-width: 0px;"/>
        <path d="M40.89,38.09s3.19.96,7.97,2.4c2.39.74,5.17,1.6,8.15,2.53,2.98.94,6.15,1.95,9.33,2.95,3.17,1.03,6.33,2.06,9.3,3.02,2.96.98,5.73,1.9,8.1,2.69,4.73,1.61,7.88,2.69,7.88,2.69,0,0-3.19-.96-7.97-2.4-2.39-.74-5.17-1.6-8.15-2.53-2.98-.94-6.15-1.95-9.33-2.95-3.17-1.03-6.33-2.06-9.3-3.02-2.96-.98-5.73-1.9-8.1-2.68-4.73-1.61-7.88-2.69-7.88-2.69Z" style="fill: #e152fa; stroke-width: 0px;"/>
        <path d="M39.81,42.39s-.13.69-.37,1.89c-.25,1.2-.58,2.93-1.04,4.97-.47,2.05-.97,4.45-1.58,7.01-.59,2.56-1.27,5.28-1.93,8-.69,2.71-1.38,5.43-2.06,7.97-.67,2.54-1.35,4.9-1.91,6.92-.55,2.03-1.08,3.7-1.42,4.88-.36,1.17-.57,1.84-.57,1.84,0,0,.13-.69.37-1.89.26-1.2.58-2.92,1.04-4.97.46-2.05.97-4.45,1.58-7,.59-2.56,1.27-5.27,1.93-8,.69-2.71,1.38-5.43,2.06-7.97.67-2.54,1.35-4.9,1.91-6.92.56-2.03,1.08-3.7,1.42-4.88.36-1.17.57-1.84.57-1.84Z" style="fill: #982eab; stroke-width: 0px;"/>
      </g>
    </g>
  </g>
</svg>