<?xml version="1.0" encoding="UTF-8"?>
<svg id="b" data-name="Layer 1" xmlns="http://www.w3.org/2000/svg" viewBox="0 0 103 100">
  <path d="M92.37,51.12c0,22.54-18.33,40.87-40.87,40.87S10.63,73.65,10.63,51.12v-2.24h81.74v2.24Z" style="fill: #c8d3dd; stroke-width: 0px;"/>
  <circle cx="51.5" cy="48.88" r="40.87" transform="translate(-14.79 23.43) rotate(-22.5)" style="fill: #9b9b9b; stroke-width: 0px;"/>
  <circle cx="52.05" cy="50.03" r="37.34" transform="translate(-15.18 23.73) rotate(-22.5)" style="fill: #182235; stroke-width: 0px;"/>
  <circle cx="52.05" cy="47.67" r="33.67" transform="translate(-14.28 23.55) rotate(-22.5)" style="fill: #1f2941; stroke-width: 0px;"/>
  <g>
    <path d="M63.57,49.54l-12.06-12.18-11.83,12.18c-3.41,0-5.4-2.89-3.44-4.98l11.95-12.79c1.68-1.79,5.21-1.79,6.89,0l11.95,12.79c1.96,2.1-.04,4.98-3.44,4.98Z" style="fill: #fff; stroke-width: 0px;"/>
    <rect x="58.42" y="31.73" width="6.09" height="11.71" style="fill: #fff; stroke-width: 0px;"/>
    <path d="M51.51,35.48c-1.71,0-11.6,10.75-11.6,12.46v13.49c0,1.71,1.38,3.09,3.09,3.09h4.87v-13.59h7.5v13.59h4.87c1.71,0,3.09-1.38,3.09-3.09v-13.49l-11.83-12.46Z" style="fill: #fff; stroke-width: 0px;"/>
  </g>
</svg>