<?xml version="1.0" encoding="UTF-8"?>
<svg id="b" data-name="Layer 1" xmlns="http://www.w3.org/2000/svg" viewBox="0 0 103 100">
  <polygon points="36.36 90.74 10.76 60.01 9.28 57.11 34.92 87.65 36.36 90.74" style="fill: #dec3b6; stroke-width: 0px;"/>
  <polygon points="34.92 87.65 9.28 57.11 29.31 44.9 58.07 72.03 34.92 87.65" style="fill: #f5e9e1; stroke-width: 0px;"/>
  <polygon points="69.42 46.28 37.88 22.74 58.56 10.63 93.08 30.95 69.42 46.28" style="fill: #f5e9e1; stroke-width: 0px;"/>
  <polygon points="58.07 72.03 29.31 44.9 37.88 22.74 69.42 46.28 58.07 72.03" style="fill: #dec3b6; stroke-width: 0px;"/>
  <polygon points="69.42 46.28 93.08 30.95 93.72 34.65 72.09 48.81 60.82 74.08 36.36 90.74 34.92 87.65 58.07 72.03 69.42 46.28" style="fill: #d6b09c; stroke-width: 0px;"/>
  <g>
    <path d="M25.18,71.61l10.27,12.24,20.45-13.86-14.64-13.8s-6.52,10.42-16.08,15.43Z" style="fill: #b8a2ed; stroke-width: 0px;"/>
    <path d="M41.27,56.18l-9.8-9.25h0s-17.86,10.89-17.86,10.89l11.58,13.79c9.57-5.01,16.08-15.43,16.08-15.43Z" style="fill: #b8a2ed; stroke-width: 0px;"/>
    <path d="M41.27,56.18c.52-4.88-1.91-12.85-5.49-20.07l-4.32,10.83,9.8,9.25h0Z" style="fill: #7868bc; stroke-width: 0px;"/>
    <path d="M35.78,36.1c3.57,7.22,6,15.2,5.49,20.07h0l14.64,13.8,11.18-25.44-26.72-19.95-4.59,11.51Z" style="fill: #7868bc; stroke-width: 0px;"/>
    <path d="M73.5,22.74c-4.7,5.78-7.11,13.24-4.93,20.83l19.08-12.51-14.14-8.33Z" style="fill: #b8a2ed; stroke-width: 0px;"/>
    <path d="M73.5,22.74l-14.94-8.79-18.19,10.65,26.72,19.95,1.48-.97c-2.18-7.6.23-15.06,4.93-20.83Z" style="fill: #b8a2ed; stroke-width: 0px;"/>
  </g>
  <g>
    <path d="M74.65,23.01c.57-2.99-1.39-5.88-4.38-6.45-2.99-.57-5.88,1.39-6.45,4.38-.41,2.14.48,4.22,2.12,5.45l1.59,4.56,3.16-3.66c1.97-.53,3.57-2.14,3.98-4.28Z" style="fill: #db1f48; stroke-width: 0px;"/>
    <path d="M71.71,22.44c-.26,1.36-1.58,2.26-2.94,2s-2.26-1.58-2-2.94,1.58-2.26,2.94-2,2.26,1.58,2,2.94Z" style="fill: #fff; stroke-width: 0px;"/>
  </g>
  <path d="M67.7,31.03c-10.48-4.76-20.79-10.01-30.98-15.34,0,0,2.48-2.48,2.48-2.48,1.49,2.4,3.6,6.01,5.07,8.48,5.87,9.92,11.67,20.35,17.19,30.48-4.94-1.52-11.74-3.61-16.67-5.18-3.86-1.23-7.71-2.49-11.55-3.78l1.94-1.54c.03,7.02-.02,14.13-.39,21.15-.28-1.75-.55-3.49-.78-5.24-.47-3.4-.93-7.09-1.3-10.49-.28-2.38-.52-4.93-.78-7.32,0,0,2.16.53,2.16.53,7.62,1.87,15.92,4.06,23.5,6.15,0,0-2.49,3.15-2.49,3.15-4.9-8.44-9.85-17.27-14.45-25.86-2.36-4.38-5.29-10.02-7.58-14.46,0,0,5.44,3.25,5.44,3.25,9.85,5.94,19.69,12.03,29.2,18.51h0Z" style="fill: #141a27; stroke-width: 0px;"/>
  <g>
    <path d="M43.24,65.52c-.02-3.05-2.5-5.5-5.55-5.48-3.05.02-5.5,2.5-5.48,5.55.01,2.18,1.29,4.05,3.13,4.94l2.44,4.17,2.39-4.2c1.83-.91,3.09-2.79,3.07-4.97Z" style="fill: #6e3dcc; stroke-width: 0px;"/>
    <path d="M40.24,65.53c0,1.39-1.11,2.52-2.5,2.53s-2.52-1.11-2.53-2.5,1.11-2.52,2.5-2.53,2.52,1.11,2.53,2.5Z" style="fill: #fff; stroke-width: 0px;"/>
  </g>
</svg>