<?xml version="1.0" encoding="UTF-8"?>
<svg id="b" data-name="Layer 1" xmlns="http://www.w3.org/2000/svg" viewBox="0 0 103 100">
  <polygon points="33.03 99.69 1.81 62.21 0 58.67 31.28 95.93 33.03 99.69" style="fill: #dec3b6; stroke-width: 0px;"/>
  <polygon points="31.28 95.93 0 58.67 24.43 43.78 59.52 76.87 31.28 95.93" style="fill: #f5e9e1; stroke-width: 0px;"/>
  <polygon points="73.36 45.47 34.89 16.75 60.12 1.98 102.22 26.77 73.36 45.47" style="fill: #f5e9e1; stroke-width: 0px;"/>
  <polygon points="59.52 76.87 24.43 43.78 34.89 16.75 73.36 45.47 59.52 76.87" style="fill: #dec3b6; stroke-width: 0px;"/>
  <polygon points="73.36 45.47 102.22 26.77 103 31.28 76.61 48.55 62.87 79.37 33.03 99.69 31.28 95.93 59.52 76.87 73.36 45.47" style="fill: #d6b09c; stroke-width: 0px;"/>
  <g>
    <path d="M19.4,76.35l12.53,14.92,24.95-16.91-17.86-16.84s-7.95,12.71-19.62,18.82Z" style="fill: #b8a2ed; stroke-width: 0px;"/>
    <path d="M39.02,57.53l-11.96-11.28h0s-21.78,13.28-21.78,13.28l14.12,16.82c11.67-6.11,19.62-18.82,19.62-18.82Z" style="fill: #b8a2ed; stroke-width: 0px;"/>
    <path d="M39.02,57.53c.63-5.95-2.33-15.68-6.69-24.48l-5.27,13.21,11.96,11.28h0Z" style="fill: #7868bc; stroke-width: 0px;"/>
    <path d="M32.33,33.05c4.36,8.81,7.32,18.54,6.69,24.48h0l17.86,16.84,13.64-31.03-32.59-24.33-5.6,14.03Z" style="fill: #7868bc; stroke-width: 0px;"/>
    <path d="M78.33,16.75c-5.73,7.04-8.67,16.15-6.02,25.41l23.27-15.26-17.25-10.16Z" style="fill: #b8a2ed; stroke-width: 0px;"/>
    <path d="M78.33,16.75l-18.22-10.73-22.19,12.99,32.59,24.33,1.8-1.18c-2.66-9.26.28-18.37,6.02-25.41Z" style="fill: #b8a2ed; stroke-width: 0px;"/>
  </g>
  <g>
    <path d="M79.74,17.07c.7-3.65-1.69-7.17-5.34-7.87-3.65-.7-7.17,1.69-7.87,5.34-.5,2.61.59,5.15,2.58,6.64l1.93,5.57,3.85-4.46c2.4-.65,4.35-2.61,4.85-5.22Z" style="fill: #db1f48; stroke-width: 0px;"/>
    <path d="M76.15,16.39c-.32,1.66-1.93,2.75-3.59,2.44s-2.75-1.93-2.44-3.59,1.93-2.75,3.59-2.44,2.75,1.93,2.44,3.59Z" style="fill: #fff; stroke-width: 0px;"/>
  </g>
  <path d="M71.26,26.86c-12.78-5.81-25.36-12.21-37.79-18.71,0,0,3.02-3.02,3.02-3.02,1.82,2.93,4.39,7.33,6.19,10.34,7.16,12.1,14.23,24.82,20.97,37.18-6.03-1.86-14.32-4.4-20.34-6.32-4.71-1.5-9.4-3.04-14.08-4.61l2.37-1.88c.04,8.57-.03,17.24-.47,25.79-.35-2.13-.67-4.26-.95-6.39-.58-4.15-1.14-8.65-1.59-12.8-.34-2.91-.63-6.01-.95-8.93,0,0,2.63.65,2.63.65,9.29,2.28,19.41,4.95,28.67,7.5,0,0-3.04,3.84-3.04,3.84-5.97-10.29-12.01-21.07-17.63-31.54-2.87-5.35-6.46-12.22-9.24-17.64,0,0,6.63,3.97,6.63,3.97,12.02,7.24,24.02,14.68,35.62,22.58h0Z" style="fill: #141a27; stroke-width: 0px;"/>
  <g>
    <path d="M41.43,68.93c-.02-3.72-3.05-6.71-6.77-6.69-3.72.02-6.71,3.05-6.69,6.77.02,2.66,1.57,4.94,3.82,6.02l2.97,5.09,2.92-5.12c2.23-1.1,3.76-3.41,3.75-6.06Z" style="fill: #6e3dcc; stroke-width: 0px;"/>
    <path d="M37.77,68.95c0,1.69-1.36,3.07-3.05,3.08s-3.08-1.36-3.08-3.05,1.36-3.08,3.05-3.08,3.07,1.36,3.08,3.05Z" style="fill: #fff; stroke-width: 0px;"/>
  </g>
</svg>