<?xml version="1.0" encoding="utf-8"?>
<!-- Generator: Adobe Illustrator 28.2.0, SVG Export Plug-In . SVG Version: 6.00 Build 0)  -->
<svg version="1.1" id="b" xmlns="http://www.w3.org/2000/svg" xmlns:xlink="http://www.w3.org/1999/xlink" x="0px" y="0px"
	 viewBox="0 0 103 100" style="enable-background:new 0 0 103 100;" xml:space="preserve">
<style type="text/css">
	.st0{fill:#F2537C;}
	.st1{fill:#AF193A;}
	.st2{fill:#F49AB6;}
	.st3{fill:#DB1F48;}
	.st4{fill:#FFFFFF;}
</style>
<g>
	<g>
		<path class="st0" d="M51,0.8v49.7h49.8C100.8,23,78.5,0.8,51,0.8z"/>
		<path class="st1" d="M100.7,50.5H51v49.7C78.5,100.2,100.7,78,100.7,50.5z"/>
		<path class="st0" d="M51,100.2V50.5H1.3C1.3,78,23.5,100.2,51,100.2z"/>
		<path class="st2" d="M1.3,50.5H51V0.7C23.5,0.7,1.3,23,1.3,50.5z"/>
		<circle class="st3" cx="51" cy="50.5" r="44.9"/>
	</g>
	<path class="st4" d="M35.5,65.3V35.4c0-4.3,5.5-6.8,9.5-4.3l24.4,15c3.4,2.1,3.4,6.5,0,8.6L45,69.6C41,72.1,35.5,69.6,35.5,65.3z"
		/>
</g>
</svg>
