<?xml version="1.0" encoding="UTF-8"?>
<svg id="b" data-name="Layer 1" xmlns="http://www.w3.org/2000/svg" viewBox="0 0 103 100">
  <g>
    <path d="M51.5.25v49.75h49.75C101.25,22.52,78.98.25,51.5.25Z" style="fill: #f2537c; stroke-width: 0px;"/>
    <path d="M101.25,50h-49.75v49.75c27.48,0,49.75-22.27,49.75-49.75Z" style="fill: #af193a; stroke-width: 0px;"/>
    <path d="M51.5,99.75v-49.75H1.75c0,27.48,22.27,49.75,49.75,49.75Z" style="fill: #f2537c; stroke-width: 0px;"/>
    <path d="M1.75,50h49.75V.25C24.02.25,1.75,22.52,1.75,50Z" style="fill: #f49ab6; stroke-width: 0px;"/>
    <circle cx="51.5" cy="50" r="44.91" style="fill: #db1f48; stroke-width: 0px;"/>
  </g>
  <path d="M36.03,64.81v-29.95c0-4.27,5.5-6.77,9.5-4.32l24.38,14.97c3.42,2.1,3.42,6.53,0,8.64l-24.38,14.97c-4,2.46-9.5-.05-9.5-4.32Z" style="fill: #fff; stroke-width: 0px;"/>
</svg>