<?xml version="1.0" encoding="UTF-8"?>
<svg id="b" data-name="Layer 1" xmlns="http://www.w3.org/2000/svg" viewBox="0 0 103 100">
  <path d="M92.37,51.12c0,22.54-18.33,40.87-40.87,40.87S10.63,73.65,10.63,51.12v-2.24h81.74v2.24Z" style="fill: #c8d3dd; stroke-width: 0px;"/>
  <circle cx="51.5" cy="48.88" r="40.87" transform="translate(-14.79 23.43) rotate(-22.5)" style="fill: #9b9b9b; stroke-width: 0px;"/>
  <circle cx="51.81" cy="50.79" r="37.57" transform="translate(-15.49 23.69) rotate(-22.5)" style="fill: #182235; stroke-width: 0px;"/>
  <circle cx="51.81" cy="48.41" r="33.89" transform="translate(-14.58 23.51) rotate(-22.5)" style="fill: #1f2941; stroke-width: 0px;"/>
  <circle cx="52.61" cy="47.49" r="7.39" style="fill: #1f2941; stroke-width: 0px;"/>
  <path d="M66.62,51.65c.17-.88.26-1.79.26-2.72s-.09-1.84-.26-2.72l1.71-.99c1.01-.58,1.36-1.88.77-2.89l-2.72-4.72c-.58-1.01-1.88-1.36-2.89-.77l-1.71.99c-1.37-1.18-2.97-2.11-4.71-2.72v-1.97c0-1.17-.95-2.12-2.12-2.12h-5.44c-1.17,0-2.12.95-2.12,2.12v1.97c-1.75.61-3.34,1.54-4.71,2.72l-1.71-.99c-1.01-.58-2.31-.24-2.89.77l-2.72,4.71c-.58,1.01-.24,2.31.77,2.89l1.71.99c-.17.88-.26,1.79-.26,2.72s.09,1.84.26,2.72l-1.71.99c-1.01.58-1.36,1.88-.77,2.89l2.72,4.71c.58,1.01,1.88,1.36,2.89.77l1.71-.99c1.37,1.18,2.97,2.11,4.71,2.72v1.97c0,1.17.95,2.12,2.12,2.12h5.44c1.17,0,2.12-.95,2.12-2.12v-1.97c1.75-.61,3.34-1.54,4.71-2.72l1.71.99c1.01.58,2.31.24,2.89-.77l2.72-4.71c.58-1.01.24-2.31-.77-2.89l-1.71-.99ZM56.14,54.94c-6.85,3.72-13.78-3.2-10.06-10.06.51-.94,1.29-1.72,2.23-2.23,6.85-3.72,13.78,3.2,10.06,10.06-.51.94-1.29,1.72-2.23,2.23Z" style="fill: #fff; stroke-width: 0px;"/>
</svg>