<?xml version="1.0" encoding="UTF-8"?>
<svg id="b" data-name="Layer 1" xmlns="http://www.w3.org/2000/svg" viewBox="0 0 103 100">
  <g>
    <path d="M86.17,50.95c0,19.11-15.55,34.67-34.67,34.67s-34.67-15.55-34.67-34.67v-1.9h69.33v1.9Z" style="fill: #c8d3dd; stroke-width: 0px;"/>
    <circle cx="51.5" cy="49.05" r="34.67" transform="translate(-14.85 23.44) rotate(-22.5)" style="fill: #fff; stroke-width: 0px;"/>
    <circle cx="51.5" cy="47.5" r="30.4" transform="translate(-14.26 23.32) rotate(-22.5)" style="fill: #6e3dcc; stroke-width: 0px;"/>
    <circle cx="51.5" cy="45.58" r="27.41" transform="translate(-13.52 23.18) rotate(-22.5)" style="fill: #8a4cff; stroke-width: 0px;"/>
    <path d="M45.32,23.39c1.81,3.23-2.41,4.27-7.11,8.97s-7.45,9.58-9.64,7.38c-2.2-2.2-.17-7.79,4.53-12.49,4.7-4.7,10.9-6.21,12.22-3.86Z" style="fill: #a27ff7; stroke-width: 0px;"/>
    <path d="M51.29,24.35c-1.9.22-3.46.34-3.64-1.25-.18-1.59,1.22-3.06,3.12-3.27,1.9-.22,3.6.9,3.78,2.48.18,1.59-1.36,1.82-3.26,2.04Z" style="fill: #a27ff7; stroke-width: 0px;"/>
  </g>
  <circle cx="52.44" cy="46.18" r="6.26" style="fill: #8a4cff; stroke-width: 0px;"/>
  <path d="M43.83,32.67l1.92,2.81-1.92-2.81Z" style="fill: #8a4cff; stroke-width: 0px;"/>
  <path d="M63.89,48.6c.13-.71.21-1.45.21-2.2s-.07-1.49-.21-2.2l1.38-.8c.82-.47,1.1-1.52.63-2.34l-2.2-3.81c-.47-.82-1.52-1.1-2.34-.63l-1.39.8c-1.11-.96-2.4-1.71-3.81-2.2v-1.6c0-.95-.77-1.71-1.71-1.71h-4.4c-.95,0-1.71.77-1.71,1.71v1.6c-1.41.49-2.7,1.25-3.81,2.2l-1.39-.8c-.82-.47-1.87-.19-2.34.63l-2.2,3.81c-.47.82-.19,1.87.63,2.34l1.38.8c-.13.71-.21,1.45-.21,2.2s.07,1.49.21,2.2l-1.38.8c-.82.47-1.1,1.52-.63,2.34l2.2,3.81c.47.82,1.52,1.1,2.34.63l1.39-.8c1.11.96,2.4,1.71,3.81,2.2v1.6c0,.95.77,1.71,1.71,1.71h4.4c.95,0,1.71-.77,1.71-1.71v-1.6c1.41-.49,2.7-1.25,3.81-2.2l1.39.8c.82.47,1.87.19,2.34-.63l2.2-3.81c.47-.82.19-1.87-.63-2.34l-1.38-.8ZM55.41,51.26c-5.54,3.01-11.15-2.59-8.14-8.14.41-.76,1.04-1.39,1.81-1.81,5.54-3.01,11.15,2.59,8.14,8.14-.41.76-1.04,1.39-1.81,1.81Z" style="fill: #fff; stroke-width: 0px;"/>
</svg>