<?xml version="1.0" encoding="UTF-8"?>
<svg id="b" data-name="Layer 1" xmlns="http://www.w3.org/2000/svg" viewBox="0 0 103 100">
  <polygon points="41.42 18.1 41.42 22.74 79.64 37.66 78.97 32.62 41.42 18.1" style="fill: #6d6d6d; stroke-width: 0px;"/>
  <path d="M60.14,78.66s8.22-13.78-1.49-25.71c-.66-.81-.84-1.9-.45-2.86.39-.96,1.28-1.62,2.32-1.74,15.27-1.79,19.34-17.23,19.34-17.23l-10.4-4.22c-1.35,3.05-6.46,13.62-15.02,19.08l-2.08,3.46-1.76,5.99s.2,10.59-.45,19.28l9.99,3.92Z" style="fill: #b3f4f1; stroke-width: 0px;"/>
  <polygon points="21.17 67.91 21.84 72.28 57.8 87.4 57.46 82.36 21.17 67.91" style="fill: #939393; stroke-width: 0px;"/>
  <polygon points="78.97 33.3 41.42 18.1 41.42 18.1 43.65 12.6 80.65 26.91 80.65 26.91 78.97 33.3" style="fill: #b5b5b5; stroke-width: 0px;"/>
  <polygon points="23.49 62.31 59.73 77.01 59.73 77.01 57.5 82.51 57.5 82.51 21.17 67.91 23.49 62.31 23.49 62.31" style="fill: #b5b5b5; stroke-width: 0px;"/>
  <path d="M54.15,49h0c.37-.91,1.21-1.52,2.18-1.64,14.39-1.69,18.9-15.56,18.9-15.56l-31.38-12.72s-6.43,13.09,2.72,24.33c.62.76.79,1.79.43,2.69h0c-.37.91-1.21,1.52-2.18,1.64-14.39,1.69-18.9,15.56-18.9,15.56l31.38,12.72s6.43-13.09-2.72-24.33c-.62-.76-.79-1.79-.43-2.69Z" style="fill: #caf9f8; stroke-width: 0px;"/>
  <path d="M57.3,76.02s6.43-13.09-2.72-24.33c-.62-.76-.79-1.79-.43-2.69.37-.91,1.21-1.52,2.18-1.64,14.39-1.69,18.9-15.56,18.9-15.56l-9.8-3.97c-1.27,2.88-6.09,12.83-14.15,17.98l-1.96,3.26-1.66,5.65s1.43,9.54.81,17.72l8.82,3.58Z" style="fill: #fff; stroke-width: 0px;"/>
  <path d="M30.36,63.33c1.19-2.62,5.27-9.34,15.63-8.76.53.03,1.1.08,1.68.15.44.33.88.68,1.29,1.04l.05.04c7.8,6.79,6.05,14.44,5.08,17.15l-23.73-9.62Z" style="fill: #00e0ea; stroke-width: 0px;"/>
  <path d="M68.28,39.81c-3.17,3.22-7.97,6.11-14.95,6.09-.65,0-1.34-.03-2.05-.09-.52-.42-1.02-.87-1.5-1.34l-.07-.06c-4.45-4.31-6.07-9.07-6.38-13.24,2.22.11,6.73,1.34,11.93,5.63,4.66,3.84,8.16,3.08,13.02,3.01Z" style="fill: #00e0ea; stroke-width: 0px;"/>
  <path d="M54.09,72.96c.97-2.71,2.72-10.35-5.08-17.15l-.05-.04c-.41-.36-.84-.71-1.29-1.04,0,0,1.99,7.05.75,15.93l5.67,2.3Z" style="fill: #02c4c4; stroke-width: 0px;"/>
  <path d="M68.28,39.81c-3.91.06-6.95.56-10.41-1.25-2.04,4.2-6.59,7.25-6.59,7.25.71.06,1.39.09,2.05.09,6.98.02,11.78-2.87,14.95-6.09Z" style="fill: #02c4c4; stroke-width: 0px;"/>
  <polygon points="57.8 87.4 60.15 81.35 59.73 77.01 57.46 82.36 57.8 87.4" style="fill: #858585; stroke-width: 0px;"/>
  <polygon points="79.64 37.66 81.83 31.56 80.65 26.91 78.3 32.96 79.64 37.66" style="fill: #858585; stroke-width: 0px;"/>
</svg>