<?xml version="1.0" encoding="UTF-8"?>
<svg id="b" data-name="Layer 1" xmlns="http://www.w3.org/2000/svg" viewBox="0 0 103 100">
  <polygon points="38.02 7.35 38.02 13.56 89.12 33.51 88.23 26.77 38.02 7.35" style="fill: #6d6d6d; stroke-width: 0px;"/>
  <path d="M63.05,88.32s10.99-18.43-1.99-34.37c-.88-1.08-1.13-2.53-.6-3.82.52-1.29,1.72-2.16,3.09-2.32,20.42-2.39,25.86-23.03,25.86-23.03l-13.91-5.64c-1.8,4.08-8.64,18.2-20.08,25.51l-2.78,4.63-2.35,8.01s.27,14.16-.6,25.78l13.35,5.25Z" style="fill: #b3f4f1; stroke-width: 0px;"/>
  <polygon points="10.95 73.94 11.85 79.78 59.92 100 59.47 93.26 10.95 73.94" style="fill: #939393; stroke-width: 0px;"/>
  <polygon points="88.23 27.67 38.02 7.35 38.02 7.35 41 0 90.47 19.13 90.47 19.13 88.23 27.67" style="fill: #b5b5b5; stroke-width: 0px;"/>
  <polygon points="14.05 66.46 62.51 86.11 62.51 86.11 59.52 93.46 59.52 93.46 10.95 73.94 14.05 66.46 14.05 66.46" style="fill: #b5b5b5; stroke-width: 0px;"/>
  <path d="M55.05,48.67h0c.49-1.21,1.62-2.03,2.92-2.19,19.24-2.26,25.26-20.8,25.26-20.8L41.28,8.67s-8.6,17.5,3.64,32.52c.83,1.01,1.06,2.39.57,3.6h0c-.49,1.21-1.62,2.03-2.92,2.19-19.24,2.26-25.26,20.8-25.26,20.8l41.95,17.01s8.6-17.5-3.64-32.52c-.83-1.01-1.06-2.39-.57-3.6Z" style="fill: #caf9f8; stroke-width: 0px;"/>
  <path d="M59.25,84.79s8.6-17.5-3.64-32.52c-.83-1.01-1.06-2.39-.57-3.6.49-1.21,1.62-2.03,2.92-2.19,19.24-2.26,25.26-20.8,25.26-20.8l-13.1-5.31c-1.7,3.85-8.14,17.15-18.91,24.04l-2.62,4.36-2.21,7.55s1.91,12.75,1.09,23.69l11.79,4.78Z" style="fill: #fff; stroke-width: 0px;"/>
  <path d="M23.24,67.83c1.59-3.5,7.04-12.49,20.89-11.71.71.04,1.47.11,2.25.2.59.45,1.17.91,1.72,1.39l.07.06c10.43,9.08,8.09,19.3,6.79,22.92l-31.72-12.86Z" style="fill: #00e0ea; stroke-width: 0px;"/>
  <path d="M73.93,36.38c-4.24,4.3-10.66,8.17-19.98,8.14-.87,0-1.79-.04-2.74-.12-.7-.57-1.37-1.17-2.01-1.79l-.09-.07c-5.95-5.76-8.11-12.13-8.54-17.71,2.97.15,8.99,1.8,15.94,7.53,6.23,5.14,10.91,4.12,17.41,4.02Z" style="fill: #00e0ea; stroke-width: 0px;"/>
  <path d="M54.96,80.69c1.3-3.62,3.64-13.84-6.79-22.92l-.07-.06c-.55-.48-1.13-.95-1.72-1.39,0,0,2.66,9.43,1.01,21.3l7.58,3.07Z" style="fill: #02c4c4; stroke-width: 0px;"/>
  <path d="M73.93,36.38c-5.23.08-9.29.75-13.92-1.67-2.72,5.62-8.8,9.69-8.8,9.69.94.08,1.86.12,2.74.12,9.33.03,15.75-3.84,19.98-8.14Z" style="fill: #02c4c4; stroke-width: 0px;"/>
  <polygon points="59.92 100 63.07 91.91 62.51 86.11 59.47 93.26 59.92 100" style="fill: #858585; stroke-width: 0px;"/>
  <polygon points="89.12 33.51 92.05 25.35 90.47 19.13 87.33 27.22 89.12 33.51" style="fill: #858585; stroke-width: 0px;"/>
</svg>